
                          Swedish Hardsub


 
http://www.imdb.com/title/tt0321359/



General
Complete name           : Return.to.the.Batcave.2003.DVDRip.SweSub.x264.mp4
Format                              : MPEG-4
Format profile                      : Base Media
Codec ID                            : isom
File size                           : 700 MiB
Duration                            : 1h 26mn
Overall bit rate mode               : Variable


Video
ID                                  : 1
Format                              : AVC
Format/Info                         : Advanced Video Codec
Format profile                      : High@L3.0
Format settings, CABAC              : Yes
Format settings, ReFrames           : 5 frames
Codec ID                            : avc1
Codec ID/Info                       : Advanced Video Coding
Duration                            : 1h 26mn
Bit rate                            : 1 080 Kbps
Maximum bit rate                    : 6 588 Kbps
Width                               : 640 pixels
Height                              : 480 pixels
Display aspect ratio                : 4:3
Frame rate mode                     : Constant
Frame rate                          : 25.000 fps
Color space                         : YUV
Chroma subsampling                  : 4:2:0
Bit depth                           : 8 bits
Scan type                           : Progressive
Bits/(Pixel*Frame)                  : 0.141
Stream size                         : 666 MiB (95%)
Writing library                     : x264 core 130 r2273 b3065e6


Audio
ID                                  : 2
Format                              : AAC
Format/Info                         : Advanced Audio Codec
Format profile                      : HE-AAC / LC
Codec ID                            : 40
Duration                            : 1h 26mn
Bit rate mode                       : Variable
Bit rate                            : 51.4 Kbps
Maximum bit rate                    : 66.2 Kbps
Channel(s)                          : 2 channels
Channel positions                   : Front: L R
Sampling rate                       : 48.0 KHz / 24.0 KHz
Compression mode                    : Lossy
Stream size                         : 31.7 MiB (5%)

Menu
00:07:42.000                        : Chapter 1
00:14:42.000                        : Chapter 2
00:21:42.000                        : Chapter 3
00:28:42.000                        : Chapter 4
00:35:42.000                        : Chapter 5
00:42:42.000                        : Chapter 6
00:49:42.000                        : Chapter 7
00:56:42.000                        : Chapter 8
01:03:00.000                        : Chapter 9
01:10:42.000                        : Chapter 10
01:17:42.000                        : Chapter 11
01:24:42.000                        : Chapter 12
01:31:42.000                        : Chapter 13

